<svg width="1761" height="335" viewBox="0 0 1761 335" fill="none" xmlns="http://www.w3.org/2000/svg">
<g opacity="0.3" filter="url(#filter0_f_1971_4222)">
<path d="M1756 5H5V113.928C12.7143 125.396 25.0878 133.042 37.003 132.617C48.7273 132.239 59.6877 126.718 67.1347 115.343C73.627 105.432 76.8731 94.5773 88.9029 94.5301C98.4503 94.5301 102.117 105.527 105.057 115.155C110.366 132.711 113.039 151.448 119.722 168.344C132.134 199.635 160.05 212 185.905 196.992C204.694 186.09 213.516 162.303 220.161 139.46C222.529 131.296 225.737 109.35 234.559 108.311C244.564 107.131 249.72 122.753 251.4 132.003C257.778 167.023 251.973 205.581 251.095 241.025C250.407 268.776 248.88 315.406 275.231 327.11C305.821 340.655 321.555 303.89 324.228 272.788C327.436 235.551 322.548 197.889 321.631 160.651C321.326 147.814 319.531 129.125 324.801 117.278C329.422 106.943 341.528 114.683 346.493 121.29C361.081 140.687 361.807 171.034 376.51 190.951C392.32 212.425 421.536 214.832 441.127 199.682C459.496 185.476 463.735 159.235 471.602 136.298C475.269 125.585 479.928 116.24 489.972 114.73C499.481 113.314 510.9 116.854 517.048 126.434C523.197 135.968 524.266 149.419 524.915 161.123C525.908 180.049 524.572 199.068 525.564 217.947C526.405 233.616 529.078 251.456 540.115 261.225C548.211 268.399 559.171 269.39 568.719 267.219C600.607 260.045 598.163 215.304 594.039 184.957C591.48 166.126 587.623 147.531 585.828 128.558C584.835 118.081 582.314 96.2764 596.292 100.571C607.176 103.875 613.974 122.187 621.344 131.626C626.003 137.573 631.159 142.811 637.117 146.587C642.54 150.032 648.917 150.787 654.111 154.516C663.62 161.265 667.019 177.122 672.137 188.308C676.834 198.597 682.83 207.988 691.308 213.841C711.892 227.952 741.146 222.619 752.602 195.859C762.074 173.819 759.4 143.142 773.149 123.98C779.335 115.391 790.067 111.096 799.27 112.37C810.384 113.88 812.102 129.219 812.904 140.64C815.539 178.963 808.092 217.664 806.947 255.892C806.068 285.153 808.703 329.423 840.286 329.423C871.869 329.423 877.979 283.171 878.132 252.258C890.773 271.467 917.659 264.482 927.779 245.367C939.618 223.044 935.493 190.856 933.125 165.984C931.789 152.109 930.185 138.281 929.345 124.358C928.772 114.871 926.824 99.7216 931.254 91.132C935.34 83.156 945.957 85.6102 951.915 89.5274C958.98 94.1998 963.066 103.45 966.732 111.804C973.721 127.803 979.946 146.068 993.847 154.705C1008.17 163.625 1029.29 160.887 1040.02 145.313C1048.84 132.475 1048.8 115.721 1052.39 100.335C1056.1 84.4775 1073.13 75.1327 1084.85 86.2709C1097.26 98.0226 1092.83 130.635 1091.92 146.776C1090.66 169.241 1086.3 197.228 1094.82 218.277C1102.38 236.919 1126.25 244.046 1137.56 226.112C1148.63 208.46 1140.61 179.152 1137.75 159.66C1135.84 146.681 1128.81 116.099 1141.57 108.217C1158.75 97.5978 1165.32 119.733 1166.62 136.015C1170.74 186.939 1156.19 238.854 1164.14 289.448C1167.31 309.506 1176.66 327.535 1194.57 329.14C1211.41 330.65 1222.6 316.302 1227.07 297.566C1231.88 277.413 1230.89 255.184 1229.67 234.512C1227.99 206.761 1224.4 179.294 1221.8 151.637C1225.54 162.35 1232.15 170.421 1240.55 175.659C1248.34 180.521 1258.04 179.718 1260.18 191.848C1262.55 205.204 1259.19 220.731 1257.85 233.993C1256.29 249.709 1254.34 269.201 1263.12 282.463C1270.07 292.988 1282.56 295.867 1292.91 292.893C1319.26 285.248 1316.05 243.196 1313.72 217.994C1312.08 200.201 1309.52 182.503 1308.49 164.663C1307.96 155.46 1305.78 136.629 1312.43 129.596C1320.06 121.573 1335.57 131.201 1341.6 138.233C1349.58 147.484 1353.59 160.934 1357.91 173.064C1366.46 197.039 1378.23 219.079 1401.9 218.372C1426.04 217.616 1438.11 192.367 1446.78 167.919C1453.84 148.05 1463.05 107.981 1487.14 118.034C1506.77 126.198 1502.95 168.108 1502.19 187.458C1501.05 217.05 1493.87 255.043 1504.33 283.124C1509.03 295.772 1519.07 303.607 1530.53 301.908C1541.98 300.209 1548.55 288.929 1551.3 276.092C1557.83 245.415 1551.46 209.782 1548.25 179.105C1545.38 151.731 1539.31 119.355 1544.31 91.9344C1546.22 81.4569 1554.93 76.2182 1560.77 86.8844C1566.5 97.3147 1565.28 114.683 1565.05 126.529C1564.48 157.064 1556.5 196.803 1568.56 225.215C1581.28 255.137 1616.76 244.848 1623.71 214.973C1627.49 198.691 1625.7 180.898 1624.59 164.332C1623.79 152.062 1620.35 132.428 1625.66 121.054C1627.03 118.081 1630.78 113.928 1633.49 116.382C1634.98 117.75 1635.43 123.933 1635.74 125.774C1638.15 141.348 1637.54 157.914 1637.15 173.677C1636.35 208.46 1633.53 243.527 1635.55 278.31C1636.7 297.755 1640.44 329.612 1661.4 329.612C1686.42 329.612 1691.92 294.876 1691.76 270.617C1691.5 231.917 1683.29 194.113 1680.58 155.696C1679.66 142.858 1677.71 125.915 1685.46 115.579C1693.71 104.63 1708 102.742 1719.38 102.317C1731.52 101.845 1747.06 106.659 1755.85 106.093V5H1756ZM873.588 176.792C871.373 153.855 867.248 129.408 868.929 106.235C881.875 121.856 875.383 157.536 873.588 176.792Z" fill="#FFCB8F"/>
</g>
<defs>
<filter id="filter0_f_1971_4222" x="0" y="0" width="1761" height="335" filterUnits="userSpaceOnUse" color-interpolation-filters="sRGB">
<feFlood flood-opacity="0" result="BackgroundImageFix"/>
<feBlend mode="normal" in="SourceGraphic" in2="BackgroundImageFix" result="shape"/>
<feGaussianBlur stdDeviation="2.5" result="effect1_foregroundBlur_1971_4222"/>
</filter>
</defs>
</svg>
